# Blender v2.79 (sub 0) OBJ File: 'Grass.blend'
# www.blender.org
o Grass_Cube.006
v 0.095759 -0.093806 0.030046
v 0.084094 0.020095 0.022875
v 0.046094 -0.093806 0.034716
v 0.046094 0.020095 0.034716
v 0.074428 -0.093806 -0.011542
v 0.074634 0.021233 -0.002840
v 0.039341 0.219995 -0.012299
v 0.042651 -0.093806 0.073960
v 0.033064 0.020095 0.064183
v -0.006671 -0.093806 0.066493
v -0.006671 0.020095 0.066493
v 0.032000 -0.093806 0.028451
v 0.030097 0.021233 0.036944
v -0.001865 0.219995 0.019240
v -0.078796 -0.093806 0.070335
v -0.067554 0.020095 0.062518
v -0.063188 -0.093806 0.022956
v -0.063188 0.020095 0.022956
v -0.032147 -0.093806 0.067443
v -0.040203 0.021233 0.064147
v -0.017403 0.219995 0.035595
v -0.079632 -0.093806 -0.058997
v -0.067302 0.020095 -0.053040
v -0.030692 -0.093806 -0.068657
v -0.030692 0.020095 -0.068657
v -0.054212 -0.093806 -0.019775
v -0.055295 0.021233 -0.028412
v -0.019228 0.219995 -0.022564
v 0.023800 -0.093806 -0.098106
v 0.024995 0.020095 -0.084465
v 0.057152 -0.093806 -0.061011
v 0.057152 0.020095 -0.061011
v 0.003121 -0.093806 -0.056190
v 0.009986 0.021233 -0.061542
v 0.023427 0.219995 -0.027566
v -0.043953 -0.093806 0.007850
v -0.030873 0.020095 0.003799
v -0.014743 -0.093806 -0.032588
v -0.014743 0.020095 -0.032588
v 0.001386 -0.093806 0.019204
v -0.005295 0.021233 0.013625
v 0.025073 0.219995 -0.006692
vn 0.0934 0.0721 0.9930
vn -0.8520 0.0410 -0.5219
vn 0.8881 0.0623 -0.4555
vn 0.0000 -1.0000 -0.0000
vn -0.7825 -0.1675 -0.5997
vn 0.2896 0.2284 0.9295
vn 0.9301 0.1492 -0.3356
vn -0.1493 0.0721 0.9862
vn -0.7007 0.0410 -0.7123
vn 0.9718 0.0623 -0.2275
vn -0.6144 -0.1675 -0.7710
vn 0.0565 0.2284 0.9719
vn 0.9836 0.1492 -0.1009
vn -0.9473 0.0721 -0.3121
vn 0.8194 0.0410 -0.5717
vn 0.0618 0.0623 0.9961
vn 0.8629 -0.1675 -0.4769
vn -0.9677 0.2284 -0.1068
vn -0.0650 0.1492 0.9867
vn -0.1931 0.0721 -0.9785
vn 0.9004 0.0410 0.4332
vn -0.8375 0.0623 0.5428
vn 0.8390 -0.1675 0.5177
vn -0.3820 0.2284 -0.8955
vn -0.8915 0.1492 0.4277
vn 0.7417 0.0721 -0.6669
vn 0.0888 0.0410 0.9952
vn -0.8951 0.0623 -0.4416
vn -0.0151 -0.1675 0.9858
vn 0.5737 0.2284 -0.7866
vn -0.8238 0.1492 -0.5468
vn -0.8085 0.0721 -0.5840
vn 0.9540 0.0410 -0.2971
vn -0.2425 0.0623 0.9682
vn 0.9667 -0.1675 -0.1935
vn -0.8900 0.2284 -0.3945
vn -0.3604 0.1492 0.9208
vn 0.2975 0.0000 0.9547
vn -0.7962 0.0000 -0.6050
vn 0.9386 0.0244 -0.3442
vn 0.0580 0.0000 0.9983
vn -0.6264 0.0000 -0.7795
vn 0.9939 0.0244 -0.1073
vn -0.9940 0.0000 -0.1097
vn 0.8732 0.0000 -0.4873
vn -0.0604 0.0244 0.9979
vn -0.3923 0.0000 -0.9198
vn 0.8532 0.0000 0.5216
vn -0.8990 0.0244 0.4372
vn 0.5893 0.0000 -0.8079
vn -0.0113 0.0000 0.9999
vn -0.8358 0.0244 -0.5485
vn -0.9142 0.0000 -0.4052
vn 0.9797 0.0000 -0.2003
vn -0.3595 0.0244 0.9328
s off
f 2//1 3//1 1//1
f 3//2 6//2 5//2
f 5//3 2//3 1//3
f 3//4 5//4 1//4
f 6//5 4//5 7//5
f 4//6 2//6 7//6
f 2//7 6//7 7//7
f 9//8 10//8 8//8
f 10//9 13//9 12//9
f 12//10 9//10 8//10
f 10//4 12//4 8//4
f 13//11 11//11 14//11
f 11//12 9//12 14//12
f 9//13 13//13 14//13
f 16//14 17//14 15//14
f 17//15 20//15 19//15
f 19//16 16//16 15//16
f 17//4 19//4 15//4
f 20//17 18//17 21//17
f 18//18 16//18 21//18
f 16//19 20//19 21//19
f 23//20 24//20 22//20
f 24//21 27//21 26//21
f 26//22 23//22 22//22
f 24//4 26//4 22//4
f 27//23 25//23 28//23
f 25//24 23//24 28//24
f 23//25 27//25 28//25
f 30//26 31//26 29//26
f 31//27 34//27 33//27
f 33//28 30//28 29//28
f 31//4 33//4 29//4
f 34//29 32//29 35//29
f 32//30 30//30 35//30
f 30//31 34//31 35//31
f 37//32 38//32 36//32
f 38//33 41//33 40//33
f 40//34 37//34 36//34
f 38//4 40//4 36//4
f 41//35 39//35 42//35
f 39//36 37//36 42//36
f 37//37 41//37 42//37
f 2//38 4//38 3//38
f 3//39 4//39 6//39
f 5//40 6//40 2//40
f 9//41 11//41 10//41
f 10//42 11//42 13//42
f 12//43 13//43 9//43
f 16//44 18//44 17//44
f 17//45 18//45 20//45
f 19//46 20//46 16//46
f 23//47 25//47 24//47
f 24//48 25//48 27//48
f 26//49 27//49 23//49
f 30//50 32//50 31//50
f 31//51 32//51 34//51
f 33//52 34//52 30//52
f 37//53 39//53 38//53
f 38//54 39//54 41//54
f 40//55 41//55 37//55
